<svg width="99" height="18" viewBox="0 0 99 18" fill="none" xmlns="http://www.w3.org/2000/svg">
<path d="M0.598877 17.118H3.26797V12.6375L4.58095 10.6359L8.03906 17.118H11.2321L6.49185 8.41104L11.1766 1.35153H7.97742L3.43441 8.30326H3.26797V1.35153H0.598877V17.118Z" fill="#FF577F"/>
<path d="M16.4844 17.349C18.8268 17.349 20.4049 15.9248 20.7747 13.7307L18.346 13.5305C18.081 14.4313 17.4029 14.9009 16.5276 14.9009C15.2146 14.9009 14.3824 13.8154 14.3824 12.0524V12.0447H20.8302V11.144C20.8302 7.12539 18.8823 5.13918 16.3796 5.13918C13.5934 5.13918 11.7873 7.6104 11.7873 11.2595C11.7873 15.0086 13.5688 17.349 16.4844 17.349ZM14.3824 10.0123C14.4379 8.66509 15.2578 7.5873 16.4228 7.5873C17.5632 7.5873 18.3522 8.6035 18.3583 10.0123H14.3824Z" fill="#FF577F"/>
<path d="M25.5169 10.2818C25.5231 8.75747 26.2505 7.86445 27.3107 7.86445C28.3648 7.86445 28.9997 8.72668 28.9936 10.174V17.118H31.6195V9.58891C31.6195 6.83285 30.325 5.13918 28.3525 5.13918C26.947 5.13918 25.9299 6.00141 25.5046 7.37944H25.3937V5.29315H22.891V17.118H25.5169V10.2818Z" fill="#FF577F"/>
<path d="M33.987 17.118H41.945V14.5005H37.4328V14.4159L41.7847 7.42563V5.29315H34.1473V7.91064H38.6225V7.99532L33.987 15.1626V17.118Z" fill="#FF577F"/>
<path d="M44.3001 17.118H46.9261V5.29315H44.3001V17.118ZM45.6192 3.76885C46.4021 3.76885 47.0432 3.0221 47.0432 2.10598C47.0432 1.19756 46.4021 0.450806 45.6192 0.450806C44.8426 0.450806 44.2015 1.19756 44.2015 2.10598C44.2015 3.0221 44.8426 3.76885 45.6192 3.76885Z" fill="#FF577F"/>
<path d="M53.6917 17.349C56.0341 17.349 57.6121 15.9248 57.982 13.7307L55.5533 13.5305C55.2882 14.4313 54.6102 14.9009 53.7348 14.9009C52.4219 14.9009 51.5897 13.8154 51.5897 12.0524V12.0447H58.0374V11.144C58.0374 7.12539 56.0896 5.13918 53.5869 5.13918C50.8007 5.13918 48.9946 7.6104 48.9946 11.2595C48.9946 15.0086 50.776 17.349 53.6917 17.349ZM51.5897 10.0123C51.6452 8.66509 52.465 7.5873 53.63 7.5873C54.7704 7.5873 55.5594 8.6035 55.5656 10.0123H51.5897Z" fill="#FF577F"/>
<path d="M64.5122 17.118H67.1813V10.6051H72.5997V17.118H75.2626V1.35153H72.5997V7.85675H67.1813V1.35153H64.5122V17.118Z" fill="#FF577F"/>
<path d="M83.8328 12.0832C83.839 13.6691 82.9698 14.5005 82.0267 14.5005C81.0343 14.5005 80.3932 13.6306 80.387 12.2372V5.29315H77.7611V12.8223C77.7672 15.586 79.0617 17.272 80.9665 17.272C82.3904 17.272 83.4136 16.3559 83.839 14.9701H83.9376V17.118H86.4588V5.29315H83.8328V12.0832Z" fill="#FF577F"/>
<path d="M88.9557 17.118H91.5446V15.2242H91.6618C92.0255 16.2096 92.8206 17.3105 94.3493 17.3105C96.5068 17.3105 98.1896 15.178 98.1896 11.221C98.1896 7.15619 96.4328 5.13918 94.3555 5.13918C92.7713 5.13918 92.0131 6.31705 91.6618 7.27936H91.5816V1.35153H88.9557V17.118ZM91.5261 11.2056C91.5261 9.0962 92.2412 7.74897 93.5172 7.74897C94.8178 7.74897 95.5082 9.15779 95.5082 11.2056C95.5082 13.2688 94.8055 14.7007 93.5172 14.7007C92.2535 14.7007 91.5261 13.315 91.5261 11.2056Z" fill="#FF577F"/>
</svg>
